<?xml version="1.0" encoding="UTF-8" standalone="no"?>
<!-- Created with Inkscape (http://www.inkscape.org/) -->

<svg
   xmlns:dc="http://purl.org/dc/elements/1.1/"
   xmlns:cc="http://creativecommons.org/ns#"
   xmlns:rdf="http://www.w3.org/1999/02/22-rdf-syntax-ns#"
   xmlns:svg="http://www.w3.org/2000/svg"
   xmlns="http://www.w3.org/2000/svg"
   xmlns:xlink="http://www.w3.org/1999/xlink"
   version="1.1"
   width="96"
   height="96"
   id="svg3236">
  <defs
     id="defs3238">
    <linearGradient
       x1="49.694546"
       y1="16.579851"
       x2="57.42638"
       y2="16.579851"
       id="linearGradient5840"
       xlink:href="#radialGradient3214-7-1-0"
       gradientUnits="userSpaceOnUse"
       gradientTransform="matrix(0,1.7270603,-1.8971248,0,70.335158,-69.752595)" />
    <radialGradient
       cx="69.447998"
       cy="51.695"
       r="31"
       id="radialGradient3214-7-1-0"
       gradientUnits="userSpaceOnUse"
       gradientTransform="matrix(0,1.749,-1.9048,0,190.55,-146.287)">
      <stop
         id="stop3244-5-3-0-7"
         style="stop-color:#8df800;stop-opacity:1"
         offset="0" />
      <stop
         id="stop3246-9-1-2-3"
         style="stop-color:#91e34f;stop-opacity:1"
         offset="0.26238" />
      <stop
         id="stop3248-7-3-7-9"
         style="stop-color:#519200;stop-opacity:1"
         offset="0.66093999" />
      <stop
         id="stop3250-8-7-4-5"
         style="stop-color:#315c00;stop-opacity:1"
         offset="1" />
    </radialGradient>
    <linearGradient
       x1="32.250999"
       y1="6.1317"
       x2="32.250999"
       y2="90.238998"
       id="linearGradient5764"
       xlink:href="#f"
       gradientUnits="userSpaceOnUse"
       gradientTransform="matrix(1.0238,0,0,-1.0119,-1.1429,98.071)" />
    <linearGradient
       x1="45.448002"
       y1="92.540001"
       x2="45.448002"
       y2="7.0165"
       id="f"
       gradientUnits="userSpaceOnUse"
       gradientTransform="matrix(1.0059,0,0,0.99417,100,0)">
      <stop
         id="stop68"
         style="stop-color:#000000;stop-opacity:1"
         offset="0" />
      <stop
         id="stop70"
         style="stop-color:#000000;stop-opacity:0.58824003"
         offset="1" />
    </linearGradient>
    <linearGradient
       x1="32.250999"
       y1="6.1317"
       x2="32.250999"
       y2="90.238998"
       id="linearGradient4557"
       xlink:href="#f"
       gradientUnits="userSpaceOnUse"
       gradientTransform="matrix(1.0238,0,0,-1.0119,-1.1429,98.071)" />
    <linearGradient
       x1="45.448002"
       y1="92.540001"
       x2="45.448002"
       y2="7.0165"
       id="linearGradient3265"
       gradientUnits="userSpaceOnUse"
       gradientTransform="matrix(1.0059,0,0,0.99417,100,0)">
      <stop
         id="stop3267"
         style="stop-color:#000000;stop-opacity:1"
         offset="0" />
      <stop
         id="stop3269"
         style="stop-color:#000000;stop-opacity:0.58824003"
         offset="1" />
    </linearGradient>
    <linearGradient
       x1="32.250999"
       y1="6.1317"
       x2="32.250999"
       y2="90.238998"
       id="linearGradient4559"
       xlink:href="#f"
       gradientUnits="userSpaceOnUse"
       gradientTransform="matrix(1.0238,0,0,-1.0119,-1.1429,98.071)" />
    <linearGradient
       x1="45.448002"
       y1="92.540001"
       x2="45.448002"
       y2="7.0165"
       id="linearGradient3272"
       gradientUnits="userSpaceOnUse"
       gradientTransform="matrix(1.0059,0,0,0.99417,100,0)">
      <stop
         id="stop3274"
         style="stop-color:#000000;stop-opacity:1"
         offset="0" />
      <stop
         id="stop3276"
         style="stop-color:#000000;stop-opacity:0.58824003"
         offset="1" />
    </linearGradient>
    <linearGradient
       x1="32.250999"
       y1="6.1317"
       x2="32.250999"
       y2="90.238998"
       id="linearGradient4561"
       xlink:href="#f"
       gradientUnits="userSpaceOnUse"
       gradientTransform="matrix(1.0238,0,0,-1.0119,-1.1429,98.071)" />
    <linearGradient
       x1="45.448002"
       y1="92.540001"
       x2="45.448002"
       y2="7.0165"
       id="linearGradient3279"
       gradientUnits="userSpaceOnUse"
       gradientTransform="matrix(1.0059,0,0,0.99417,100,0)">
      <stop
         id="stop3281"
         style="stop-color:#000000;stop-opacity:1"
         offset="0" />
      <stop
         id="stop3283"
         style="stop-color:#000000;stop-opacity:0.58824003"
         offset="1" />
    </linearGradient>
    <linearGradient
       x1="32.250999"
       y1="90"
       x2="32.250999"
       y2="5.9995999"
       id="linearGradient4565"
       xlink:href="#f"
       gradientUnits="userSpaceOnUse"
       gradientTransform="matrix(1.0238,0,0,1.0119,-1.1429,0.929)" />
    <linearGradient
       x1="45.448002"
       y1="92.540001"
       x2="45.448002"
       y2="7.0165"
       id="linearGradient3286"
       gradientUnits="userSpaceOnUse"
       gradientTransform="matrix(1.0059,0,0,0.99417,100,0)">
      <stop
         id="stop3288"
         style="stop-color:#000000;stop-opacity:1"
         offset="0" />
      <stop
         id="stop3290"
         style="stop-color:#000000;stop-opacity:0.58824003"
         offset="1" />
    </linearGradient>
    <linearGradient
       x1="32.250999"
       y1="90"
       x2="32.250999"
       y2="6"
       id="linearGradient4567"
       xlink:href="#f"
       gradientUnits="userSpaceOnUse"
       gradientTransform="translate(0,1)" />
    <linearGradient
       x1="45.448002"
       y1="92.540001"
       x2="45.448002"
       y2="7.0165"
       id="linearGradient3293"
       gradientUnits="userSpaceOnUse"
       gradientTransform="matrix(1.0059,0,0,0.99417,100,0)">
      <stop
         id="stop3295"
         style="stop-color:#000000;stop-opacity:1"
         offset="0" />
      <stop
         id="stop3297"
         style="stop-color:#000000;stop-opacity:0.58824003"
         offset="1" />
    </linearGradient>
    <linearGradient
       x1="8"
       y1="38.126999"
       x2="8"
       y2="71.876999"
       id="linearGradient4569"
       xlink:href="#n"
       gradientUnits="userSpaceOnUse" />
    <linearGradient
       id="n">
      <stop
         id="stop12"
         style="stop-color:#8a5b30;stop-opacity:1"
         offset="0" />
      <stop
         id="stop14"
         style="stop-color:#8a5b30;stop-opacity:0"
         offset="1" />
    </linearGradient>
    <linearGradient
       x1="54.187"
       y1="90"
       x2="54.187"
       y2="39.853001"
       id="linearGradient4571"
       xlink:href="#w"
       gradientUnits="userSpaceOnUse" />
    <linearGradient
       x1="54.187"
       y1="90"
       x2="54.187"
       y2="39.853001"
       id="w"
       gradientUnits="userSpaceOnUse">
      <stop
         id="stop168"
         style="stop-color:#996c3b;stop-opacity:1"
         offset="0" />
      <stop
         id="stop170"
         style="stop-color:#c19e6d;stop-opacity:1"
         offset="1" />
    </linearGradient>
    <radialGradient
       cx="48"
       cy="73.146004"
       r="42"
       id="radialGradient4573"
       xlink:href="#p"
       gradientUnits="userSpaceOnUse"
       gradientTransform="matrix(0.86776,0,0,0.095238,6.3473,36.19)" />
    <radialGradient
       cx="48"
       cy="73.146004"
       r="42"
       id="p"
       gradientUnits="userSpaceOnUse"
       gradientTransform="matrix(0.86776,0,0,0.095238,6.3473,36.19)">
      <stop
         id="stop163"
         style="stop-color:#71461e;stop-opacity:1"
         offset="0" />
      <stop
         id="stop165"
         style="stop-color:#71461e;stop-opacity:0"
         offset="1" />
    </radialGradient>
    <linearGradient
       x1="8"
       y1="38.126999"
       x2="8"
       y2="87.029999"
       id="linearGradient4575"
       xlink:href="#n"
       gradientUnits="userSpaceOnUse"
       gradientTransform="matrix(-1,0,0,1,96,0)" />
    <linearGradient
       id="linearGradient3312">
      <stop
         id="stop3314"
         style="stop-color:#8a5b30;stop-opacity:1"
         offset="0" />
      <stop
         id="stop3316"
         style="stop-color:#8a5b30;stop-opacity:0"
         offset="1" />
    </linearGradient>
    <linearGradient
       x1="10"
       y1="40.263"
       x2="10"
       y2="89.666"
       id="linearGradient4577"
       xlink:href="#g"
       gradientUnits="userSpaceOnUse"
       gradientTransform="matrix(-1,0,0,1,96,0)" />
    <linearGradient
       id="g">
      <stop
         id="stop22"
         style="stop-color:#ffffff;stop-opacity:1"
         offset="0" />
      <stop
         id="stop24"
         style="stop-color:#ffffff;stop-opacity:0"
         offset="1" />
    </linearGradient>
    <linearGradient
       x1="10"
       y1="40.263"
       x2="10"
       y2="89.666"
       id="linearGradient4579"
       xlink:href="#g"
       gradientUnits="userSpaceOnUse" />
    <linearGradient
       id="linearGradient3323">
      <stop
         id="stop3325"
         style="stop-color:#ffffff;stop-opacity:1"
         offset="0" />
      <stop
         id="stop3327"
         style="stop-color:#ffffff;stop-opacity:0"
         offset="1" />
    </linearGradient>
    <linearGradient
       x1="47.078999"
       y1="32.783001"
       x2="6.5963001"
       y2="9.4098997"
       id="linearGradient4581"
       xlink:href="#aa"
       gradientUnits="userSpaceOnUse" />
    <linearGradient
       x1="47.078999"
       y1="32.783001"
       x2="6.5963001"
       y2="9.4098997"
       id="aa"
       gradientUnits="userSpaceOnUse">
      <stop
         id="stop155"
         style="stop-color:#be9f6a;stop-opacity:1"
         offset="0" />
      <stop
         id="stop157"
         style="stop-color:#e5d2b2;stop-opacity:1"
         offset="1" />
    </linearGradient>
    <filter
       x="-0.31156"
       y="-0.42627999"
       width="1.6231"
       height="1.8526"
       color-interpolation-filters="sRGB"
       id="as">
      <feGaussianBlur
         id="feGaussianBlur27"
         stdDeviation="6.2124381" />
    </filter>
    <linearGradient
       x1="48"
       y1="42"
       x2="6.7813001"
       y2="18.202"
       id="linearGradient4583"
       xlink:href="#m"
       gradientUnits="userSpaceOnUse" />
    <linearGradient
       id="m">
      <stop
         id="stop17"
         style="stop-color:#b88f56;stop-opacity:1"
         offset="0" />
      <stop
         id="stop19"
         style="stop-color:#d9bd98;stop-opacity:1"
         offset="1" />
    </linearGradient>
    <linearGradient
       x1="47.227001"
       y1="29.040001"
       x2="6.3304"
       y2="18.082001"
       id="linearGradient4585"
       xlink:href="#m"
       gradientUnits="userSpaceOnUse"
       gradientTransform="matrix(-1,0,0,1,96,0)" />
    <linearGradient
       id="linearGradient3340">
      <stop
         id="stop3342"
         style="stop-color:#b88f56;stop-opacity:1"
         offset="0" />
      <stop
         id="stop3344"
         style="stop-color:#d9bd98;stop-opacity:1"
         offset="1" />
    </linearGradient>
    <linearGradient
       x1="23.143"
       y1="42"
       x2="66.963997"
       y2="6"
       id="linearGradient4587"
       xlink:href="#g"
       gradientUnits="userSpaceOnUse" />
    <linearGradient
       id="linearGradient3347">
      <stop
         id="stop3349"
         style="stop-color:#ffffff;stop-opacity:1"
         offset="0" />
      <stop
         id="stop3351"
         style="stop-color:#ffffff;stop-opacity:0"
         offset="1" />
    </linearGradient>
    <linearGradient
       x1="8.9651003"
       y1="44.040001"
       x2="8.9651003"
       y2="52.263"
       id="linearGradient4589"
       xlink:href="#o"
       gradientUnits="userSpaceOnUse" />
    <linearGradient
       id="o">
      <stop
         id="stop7"
         style="stop-color:#dac3a2;stop-opacity:1"
         offset="0" />
      <stop
         id="stop9"
         style="stop-color:#dac3a2;stop-opacity:0"
         offset="1" />
    </linearGradient>
    <linearGradient
       x1="8.9651003"
       y1="44.040001"
       x2="8.9651003"
       y2="52.263"
       id="linearGradient4591"
       xlink:href="#o"
       gradientUnits="userSpaceOnUse"
       gradientTransform="matrix(-1,0,0,1,96.087,0)" />
    <linearGradient
       id="linearGradient3358">
      <stop
         id="stop3360"
         style="stop-color:#dac3a2;stop-opacity:1"
         offset="0" />
      <stop
         id="stop3362"
         style="stop-color:#dac3a2;stop-opacity:0"
         offset="1" />
    </linearGradient>
    <radialGradient
       cx="48"
       cy="90.171997"
       r="42"
       id="radialGradient4593"
       xlink:href="#q"
       gradientUnits="userSpaceOnUse"
       gradientTransform="matrix(1.1573,0,0,0.99591,-7.551,0.19713)" />
    <radialGradient
       cx="48"
       cy="90.171997"
       r="42"
       id="q"
       gradientUnits="userSpaceOnUse"
       gradientTransform="matrix(1.1573,0,0,0.99591,-7.551,0.19713)">
      <stop
         id="stop145"
         style="stop-color:#ffffff;stop-opacity:1"
         offset="0" />
      <stop
         id="stop147"
         style="stop-color:#ffffff;stop-opacity:0"
         offset="1" />
    </radialGradient>
    <linearGradient
       x1="48.401001"
       y1="61.991001"
       x2="48.401001"
       y2="4.6666002"
       id="linearGradient4595"
       xlink:href="#l"
       gradientUnits="userSpaceOnUse" />
    <linearGradient
       id="l">
      <stop
         id="stop73"
         style="stop-color:#3a240f;stop-opacity:1"
         offset="0" />
      <stop
         id="stop75"
         style="stop-color:#3a240f;stop-opacity:0"
         offset="1" />
    </linearGradient>
    <linearGradient
       x1="46.796001"
       y1="60.306999"
       x2="46.796001"
       y2="6.0179"
       id="linearGradient4597"
       xlink:href="#l"
       gradientUnits="userSpaceOnUse" />
    <linearGradient
       id="linearGradient3373">
      <stop
         id="stop3375"
         style="stop-color:#3a240f;stop-opacity:1"
         offset="0" />
      <stop
         id="stop3377"
         style="stop-color:#3a240f;stop-opacity:0"
         offset="1" />
    </linearGradient>
    <linearGradient
       x1="50.499001"
       y1="19.882"
       x2="50.499001"
       y2="47.294998"
       id="linearGradient4599"
       xlink:href="#ai"
       gradientUnits="userSpaceOnUse"
       gradientTransform="matrix(1.0201,0,0,1.0201,-5.2982,5.7562)" />
    <linearGradient
       x1="50.499001"
       y1="19.882"
       x2="50.499001"
       y2="47.294998"
       id="ai"
       gradientUnits="userSpaceOnUse"
       gradientTransform="matrix(1.0201,0,0,1.0201,-5.2982,5.7562)">
      <stop
         id="stop122"
         style="stop-color:#d8cab2;stop-opacity:1"
         offset="0" />
      <stop
         id="stop124"
         style="stop-color:#d2b98c;stop-opacity:1"
         offset="0.45710999" />
      <stop
         id="stop126"
         style="stop-color:#f9f7ef;stop-opacity:1"
         offset="0.48590001" />
      <stop
         id="stop128"
         style="stop-color:#ffffff;stop-opacity:1"
         offset="0.49110001" />
      <stop
         id="stop130"
         style="stop-color:#fbf9f4;stop-opacity:1"
         offset="0.49180001" />
      <stop
         id="stop132"
         style="stop-color:#efe7d0;stop-opacity:1"
         offset="0.4946" />
      <stop
         id="stop134"
         style="stop-color:#e4d6b0;stop-opacity:1"
         offset="0.49770001" />
      <stop
         id="stop136"
         style="stop-color:#dac894;stop-opacity:1"
         offset="0.5011" />
      <stop
         id="stop138"
         style="stop-color:#c7a572;stop-opacity:1"
         offset="0.50489998" />
      <stop
         id="stop140"
         style="stop-color:#d7c198;stop-opacity:1"
         offset="1" />
    </linearGradient>
    <linearGradient
       x1="48"
       y1="72"
       x2="48"
       y2="24"
       id="linearGradient3968"
       xlink:href="#linearGradient4081"
       gradientUnits="userSpaceOnUse"
       gradientTransform="matrix(1.608437,0,0,1.608437,-29.204989,-29.813426)" />
    <linearGradient
       id="linearGradient4081">
      <stop
         id="stop4083"
         style="stop-color:#aaaaaa;stop-opacity:1"
         offset="0" />
      <stop
         id="stop4085"
         style="stop-color:#f0f0f0;stop-opacity:1"
         offset="1" />
    </linearGradient>
    <clipPath
       id="clipPath3720">
      <path
         d="m -100,-74 0,96 96,0 0,-96 -96,0 z m 48.25,20.375 c 5.310324,0 10.282712,1.532132 14.5,4.125 l -4.75,7.875 c -2.817244,-1.742827 -6.188048,-2.749999 -9.75,-2.75 -9.630238,0 -17.522742,7.344919 -18.375,16.75 l 9.875,0 -13.875,20.75 -13.875,-20.75 8.625,0 c 0.894193,-14.496311 12.90481,-26.000003 27.625,-26 z m 21.875,8 13.875,20.75 -8.625,0 c -0.894192,14.496312 -12.904808,26.000004 -27.625,26 -5.310324,0 -10.282712,-1.532132 -14.5,-4.125 l 4.75,-7.875 c 2.817244,1.742828 6.188048,2.75 9.75,2.75 9.63024,0 17.52274,-7.34492 18.375,-16.75 l -9.875,0 13.875,-20.75 z"
         id="path3722"
         style="opacity:0.3;color:#000000;fill:#ff0000;fill-opacity:1;fill-rule:nonzero;stroke:none;stroke-width:4;marker:none;visibility:visible;display:inline;overflow:visible;enable-background:accumulate" />
    </clipPath>
    <filter
       color-interpolation-filters="sRGB"
       id="filter3724">
      <feGaussianBlur
         stdDeviation="0.950625"
         id="feGaussianBlur3726" />
    </filter>
  </defs>
  <metadata
     id="metadata3241">
    <rdf:RDF>
      <cc:Work
         rdf:about="">
        <dc:format>image/svg+xml</dc:format>
        <dc:type
           rdf:resource="http://purl.org/dc/dcmitype/StillImage" />
        <dc:title></dc:title>
      </cc:Work>
    </rdf:RDF>
  </metadata>
  <g
     transform="matrix(0.97230516,0,0,0.98462524,0.85869157,0.2356)"
     id="g3253">
    <g
       id="g176"
       style="fill:url(#linearGradient5764)">
      <path
         d="M 12,95.031 C 6.4889,95.031 1.969,90.511 1.969,85 V 14 C 1.969,8.4889 6.4892,3.969 12,3.969 h 72 c 5.5111,0 10.031,4.5202 10.031,10.031 v 71 c 0,5.5111 -4.5202,10.031 -10.031,10.031 H 12 z"
         id="path178"
         style="opacity:0.07999998;fill:url(#linearGradient4557)" />
      <path
         d="m 12,94.031 c -4.9716,0 -9.0312,-4.0596 -9.0312,-9.0312 v -71 C 2.9688,9.028 7.0284,4.9684 12,4.9684 h 72 c 4.9716,0 9.0312,4.0596 9.0312,9.0312 v 71 c 0,4.9716 -4.0596,9.0312 -9.0312,9.0312 H 12 z"
         id="path180"
         style="opacity:0.1;fill:url(#linearGradient4559)" />
      <path
         d="M 12,93 C 7.5909,93 4,89.409 4,85 V 14 C 4,9.5909 7.5909,6 12,6 h 72 c 4.4091,0 8,3.5909 8,8 v 71 c 0,4.4091 -3.5909,8 -8,8 H 12 z"
         id="path182"
         style="opacity:0.2;fill:url(#linearGradient4561)" />
    </g>
    <rect
       width="86"
       height="85"
       rx="7"
       ry="7"
       x="5"
       y="7"
       id="rect184"
       style="opacity:0.3;fill:url(#linearGradient4565)" />
    <rect
       width="84"
       height="84"
       rx="6"
       ry="6"
       x="6"
       y="7"
       id="rect186"
       style="opacity:0.45;fill:url(#linearGradient4567)" />
    <path
       d="m 6,36 v 48 c 0,1.7818 0.77457,3.3717 2,4.4688 V 35.9998 H 6 z"
       id="path188"
       style="fill:url(#linearGradient4569)" />
    <rect
       width="84"
       height="84"
       rx="6"
       ry="6"
       x="6"
       y="6"
       id="rect190"
       style="fill:url(#linearGradient4571)" />
    <path
       d="m 6,36 v 2 c 0,3.324 2.676,6 6,6 h 72 c 3.324,0 6,-2.676 6,-6 v -2 c 0,3.324 -2.676,6 -6,6 H 12 C 8.676,42 6,39.324 6,36 z"
       id="path192"
       style="fill:url(#radialGradient4573)" />
    <path
       d="m 90,36 v 48 c 0,1.7818 -0.77457,3.3717 -2,4.4688 v -52.469 h 2 z"
       id="path194"
       style="fill:url(#linearGradient4575)" />
    <rect
       width="84"
       height="24"
       rx="6"
       ry="6"
       x="6"
       y="18"
       id="rect196"
       style="fill:#3c2510" />
    <path
       d="m 88,36 v 52.469 c -0.57686,0.51642 -1.2549,0.92309 -2,1.1875 v -53.656 h 2 z"
       id="path198"
       style="opacity:0.3;fill:url(#linearGradient4577)" />
    <path
       d="m 8,36 v 52.469 c 0.57686,0.51642 1.2549,0.92309 2,1.1875 V 36.0005 H 8 z"
       id="path200"
       style="opacity:0.3;fill:url(#linearGradient4579)" />
    <path
       d="M 12,6 C 8.7734,6 6,8.2593 6,13 v 22.656 l 42,0.035 V 6 H 12 z"
       id="path202"
       style="fill:url(#linearGradient4581)" />
    <rect
       width="47.855999"
       height="34.977001"
       rx="6"
       ry="6"
       x="12.753"
       y="41.957001"
       transform="matrix(1,0,0,0.8556,10,8.5841)"
       id="rect204"
       style="opacity:0.3;fill:#dac7a8;filter:url(#as)" />
    <path
       d="M 12,6 C 8.676,6 6,8.676 6,12 v 24 c 0,3.324 2.676,6 6,6 L 48,40 V 4 L 12,6 z"
       id="path206"
       style="fill:url(#linearGradient4583)" />
    <path
       d="m 84,6 c 3.324,0 6,2.676 6,6 v 24 c 0,3.324 -2.676,6 -6,6 L 48,40 V 4 l 36,2 z"
       id="path208"
       style="fill:url(#linearGradient4585)" />
    <path
       d="M 12,6 C 8.676,6 6,8.676 6,12 v 24 c 0,3.324 2.676,6 6,6 l 36,-2 36,2 c 3.324,0 6,-2.676 6,-6 V 12 C 90,8.676 87.324,6 84,6 L 48,4 12,6 z m 0,2 36,-2 36,2 c 2.2458,0 4,1.7542 4,4 v 24 c 0,2.2458 -1.7542,4 -4,4 L 48,38 12,40 C 9.7542,40 8,38.246 8,36 V 12 C 8,9.7542 9.7542,8 12,8 z"
       id="path210"
       style="opacity:0.3;fill:url(#linearGradient4587)" />
    <path
       d="m 6.1872,37.285 c 2.3991,5.5558 1.894,16.036 1.894,16.036 L 9.9121,53.069 C 9.6596,44.861 10.354,41.831 14.9,41.704 7.7308,40.509 6.1872,37.285 6.1872,37.285 z"
       id="path212"
       style="fill:url(#linearGradient4589);fill-rule:evenodd" />
    <path
       d="m 89.9,37.285 c -2.3991,5.5558 -1.894,16.036 -1.894,16.036 L 86.175,53.069 C 86.427,44.861 85.733,41.831 81.187,41.704 88.356,40.509 89.9,37.285 89.9,37.285 z"
       id="path214"
       style="fill:url(#linearGradient4591);fill-rule:evenodd" />
    <path
       d="M 12,90 C 8.676,90 6,87.324 6,84 V 12 c 0,-0.33472 0.04135,-0.6507 0.09375,-0.96875 0.0487,-0.2956 0.09704,-0.59692 0.1875,-0.875 0.0099,-0.03 0.0209,-0.063 0.0313,-0.094 0.0989,-0.2873 0.2349,-0.547 0.375,-0.812 0.1446,-0.2735 0.3156,-0.5356 0.5,-0.7812 0.1844,-0.2457 0.3738,-0.4735 0.5937,-0.6876 0.44,-0.428 0.943,-0.8145 1.5,-1.0937 0.2786,-0.1396 0.5735,-0.2469 0.8748,-0.3437 -0.256,0.1002 -0.4865,0.2362 -0.7185,0.375 -0.00741,0.0044 -0.023866,-0.0045 -0.03125,0 -0.031933,0.0193 -0.062293,0.04251 -0.09375,0.0625 -0.1204,0.0767 -0.23102,0.16351 -0.34375,0.25 -0.10617,0.0808 -0.21328,0.16111 -0.3125,0.25 -0.1779,0.1614 -0.3474,0.3453 -0.5,0.5312 -0.1075,0.1303 -0.2183,0.2653 -0.3124,0.4063 -0.0251,0.0383 -0.0385,0.0858 -0.0626,0.125 -0.0647,0.103 -0.1302,0.2045 -0.1874,0.3124 -0.1011,0.1948 -0.2057,0.4158 -0.2813,0.625 -0.008,0.0219 -0.0236,0.0406 -0.0313,0.0626 -0.0318,0.0919 -0.0358,0.1868 -0.0624,0.2812 -0.0304,0.1066 -0.0704,0.203 -0.0938,0.3125 -0.0729,0.3415 -0.125,0.6985 -0.125,1.0625 v 72 c 0,2.7818 2.2182,5 5,5 h 72 c 2.7818,0 5,-2.2182 5,-5 v -72 c 0,-0.364 -0.052,-0.721 -0.125,-1.0625 -0.044,-0.2069 -0.088,-0.3977 -0.156,-0.5937 -0.008,-0.022 -0.024,-0.0407 -0.031,-0.0626 -0.063,-0.1737 -0.139,-0.3674 -0.219,-0.5312 -0.042,-0.0828 -0.079,-0.17 -0.125,-0.25 -0.055,-0.0972 -0.127,-0.1884 -0.188,-0.2812 -0.094,-0.141 -0.205,-0.276 -0.312,-0.4063 -0.143,-0.1745 -0.303,-0.347 -0.469,-0.5 -0.011,-0.0102 -0.02,-0.0211 -0.031,-0.0313 -0.139,-0.1255 -0.285,-0.2344 -0.438,-0.3437 -0.102,-0.0731 -0.204,-0.1534 -0.312,-0.2187 -0.0074,-0.0045 -0.02384,0.0044 -0.03125,0 -0.23204,-0.13873 -0.46255,-0.27478 -0.71875,-0.375 0.30153,0.0968 0.59646,0.20414 0.875,0.34375 0.55709,0.27922 1.0601,0.66569 1.5,1.0938 0.21997,0.21403 0.40937,0.44186 0.59375,0.6875 0.18438,0.24564 0.35541,0.50774 0.5,0.78125 0.14012,0.26505 0.27614,0.52473 0.375,0.8125 0.01041,0.03078 0.02133,0.06274 0.03125,0.09375 0.09046,0.27808 0.1388,0.5794 0.1875,0.875 0.053,0.318 0.094,0.634 0.094,0.969 v 72 c 0,3.324 -2.676,6 -6,6 h -72 z"
       id="path216"
       style="opacity:0.2;fill:url(#radialGradient4593)" />
    <path
       d="M 54.12,7 H 42 L 42.06,31.062 42.195,60 47.882,59.505 53.926,58.98 53.958,53.429 54.06,31.062 54.12,7 z"
       id="path218"
       style="opacity:0.5;fill:#3a240f" />
    <path
       d="m 41.688,5.125 c 0.0042,-7.112e-4 -0.19165,0.032337 -0.1875,0.03125 0.0042,-0.00109 -0.16029,0.063954 -0.15625,0.0625 0.004,-0.00145 -0.16014,0.064309 -0.15625,0.0625 0.0039,-0.00181 -0.12871,0.06465 -0.125,0.0625 0.0037,-0.00215 -0.15976,0.096223 -0.15625,0.09375 0.0035,-0.00247 -0.12827,0.12778 -0.125,0.125 0.0033,-0.00278 -0.12801,0.096809 -0.125,0.09375 0.003,-0.00306 -0.12772,0.12832 -0.125,0.125 0.0027,-0.00332 -0.09617,0.1598 -0.09375,0.15625 0.0024,-0.00355 -0.09584,0.12875 -0.09375,0.125 0.0021,-0.00375 -0.06424,0.16017 -0.0625,0.15625 0.0017,-0.00392 -0.06389,0.16031 -0.0625,0.15625 0.0014,-0.00406 -0.03227,0.16042 -0.03125,0.15625 10e-4,-0.00417 -0.06314,0.16049 -0.0625,0.15625 6.42e-4,-0.00424 -2.6e-4,0.19178 0,0.1875 2.08e-4,-0.00343 7.69e-4,0.08233 0,0.125 v 0.03125 l 0.062,24.031 0.124,28.938 a 1.0058,1.0058 0 0 0 0,0.03125 c -4.2e-5,-0.0025 1.68e-4,0.0962 0,0.09375 -1.68e-4,-0.0025 2.94e-4,0.09619 0,0.09375 -2.94e-4,-0.0024 0.03167,0.09617 0.03125,0.09375 -4.19e-4,-0.0024 5.42e-4,0.09615 0,0.09375 -5.42e-4,-0.0024 0.03191,0.09611 0.03125,0.09375 -6.64e-4,-0.0024 0.03204,0.09608 0.03125,0.09375 -7.85e-4,-0.0023 0.03215,0.06479 0.03125,0.0625 -9.03e-4,-0.0023 0.03227,0.09599 0.03125,0.09375 -0.001,-0.0022 0.06363,0.09593 0.0625,0.09375 -0.0011,-0.0022 0.03249,0.09587 0.03125,0.09375 -0.0012,-0.0021 0.06385,0.06455 0.0625,0.0625 -0.0014,-0.0021 0.0327,0.09573 0.03125,0.09375 -0.0015,-0.002 0.06405,0.0644 0.0625,0.0625 -0.0016,-0.0019 0.06415,0.09557 0.0625,0.09375 -0.0016,-0.0018 0.06424,0.06423 0.0625,0.0625 -0.0017,-0.0017 0.09558,0.06414 0.09375,0.0625 -0.0018,-0.0016 0.06441,0.06405 0.0625,0.0625 -0.0019,-0.0015 0.06448,0.06395 0.0625,0.0625 -0.002,-0.0014 0.09581,0.06384 0.09375,0.0625 -0.0021,-0.0013 0.06462,0.03249 0.0625,0.03125 -0.0021,-0.0012 0.09593,0.06363 0.09375,0.0625 -0.0022,-0.0011 0.09599,0.03226 0.09375,0.03125 -0.0022,-10e-4 0.09604,0.03215 0.09375,0.03125 -0.0023,-8.97e-4 0.09608,0.03203 0.09375,0.03125 -0.0023,-7.79e-4 0.09612,0.03191 0.09375,0.03125 -0.0024,-6.58e-4 0.09615,0.03179 0.09375,0.03125 -0.0024,-5.36e-4 0.09617,4.12e-4 0.09375,0 -0.0024,-4.12e-4 0.09619,0.03154 0.09375,0.03125 -0.0024,-2.88e-4 0.0962,1.62e-4 0.09375,0 -0.0025,-1.62e-4 0.09621,3.6e-5 0.09375,0 -0.0025,-3.6e-5 0.0962,-9e-5 0.09375,0 -0.0025,9e-5 0.0962,-2.16e-4 0.09375,0 l 5.6875,-0.5 6.0312,-0.53125 c -8.93e-4,5.1e-5 0.02019,0.0012 0.03125,0 0.04424,-0.0047 0.12854,-5.37e-4 0.125,0 -0.0044,6.71e-4 0.19184,-0.06358 0.1875,-0.0625 -0.0043,0.0011 0.16047,-0.03273 0.15625,-0.03125 -0.0042,0.0015 0.16031,-0.06437 0.15625,-0.0625 -0.0041,0.0019 0.16012,-0.09599 0.15625,-0.09375 -0.0039,0.0022 0.1599,-0.09634 0.15625,-0.09375 -0.0036,0.0026 0.12839,-0.09667 0.125,-0.09375 -0.0034,0.0029 0.1281,-0.12822 0.125,-0.125 -0.0031,0.0032 0.12779,-0.1285 0.125,-0.125 -0.0028,0.0035 0.0962,-0.15999 0.09375,-0.15625 -0.0025,0.0037 0.09584,-0.1602 0.09375,-0.15625 -0.0021,0.004 0.09546,-0.16038 0.09375,-0.15625 -0.0017,0.0041 0.06382,-0.16052 0.0625,-0.15625 -0.0013,0.0043 0.03217,-0.16063 0.03125,-0.15625 -9.16e-4,0.0044 0.03175,-0.19194 0.03125,-0.1875 -5.04e-4,0.0044 8.7e-5,-0.16072 0,-0.15625 a 1.0058,1.0058 0 0 0 0,-0.03125 l 0.031,-5.531 0.094,-22.376 0.06,-24.062 c -7.3e-5,0.00479 -4.06e-4,-0.16103 0,-0.15625 4.06e-4,0.00478 -0.03213,-0.19221 -0.03125,-0.1875 8.81e-4,0.00471 -0.0326,-0.1921 -0.03125,-0.1875 0.0013,0.0046 -0.0643,-0.19194 -0.0625,-0.1875 0.0018,0.00444 -0.09599,-0.16049 -0.09375,-0.15625 0.0022,0.00424 -0.0964,-0.16025 -0.09375,-0.15625 0.0026,0.004 -0.09678,-0.15996 -0.09375,-0.15625 0.003,0.00371 -0.12839,-0.15964 -0.125,-0.15625 0.0034,0.00339 -0.15996,-0.12803 -0.15625,-0.125 0.004,0.0029 -0.16,-0.0965 -0.156,-0.0939 0.004,0.0027 -0.16,-0.096 -0.156,-0.0937 0.004,0.0022 -0.161,-0.0956 -0.156,-0.0938 0.0044,0.0018 -0.1921,-0.063848 -0.1875,-0.0625 0.0046,0.00135 -0.19221,-0.032132 -0.1875,-0.03125 0.0047,8.815e-4 -0.19228,-0.031656 -0.1875,-0.03125 0.0048,4.063e-4 -0.16104,7.3e-5 -0.15625,0 h -12.031 c 0.0026,2.364e-4 -0.04386,0.00229 -0.09375,0 -0.03326,-0.00153 -0.06424,0 -0.0625,0 0.0043,0 -0.19183,3.94e-4 -0.1875,0 a 1.0058,1.0058 0 0 0 -0.0625,0 z"
       id="path220"
       style="opacity:0.1;fill:url(#linearGradient4595)" />
    <path
       d="M 42,6.125 A 0.86198,0.86198 0 0 0 41.125,7 L 41.188,31.062 41.312,60 a 0.86198,0.86198 0 0 0 0.9375,0.84375 l 5.6875,-0.5 6.062,-0.532 a 0.86198,0.86198 0 0 0 0.812,-0.844 l 0.032,-5.53 0.094,-22.376 0.062,-24.062 a 0.86198,0.86198 0 0 0 -0.875,-0.875 H 41.999 z"
       id="path222"
       style="opacity:0.2;fill:url(#linearGradient4597)" />
    <path
       d="M 54.06,4.3687 48,3.9267 l -6.06,0.442 0.06,25.693 0.135,28.938 5.6868,-0.49473 6.0439,-0.52533 0.03264,-5.5512 0.10201,-22.367 0.06018,-25.694 z"
       id="path224"
       style="fill:url(#linearGradient4599)" />
    <rect
       width="1"
       height="35.714001"
       x="47"
       y="4.125"
       id="rect226"
       style="opacity:0.2;fill:#8d6137" />
    <rect
       width="1"
       height="35.714001"
       x="48"
       y="4.125"
       id="rect228"
       style="opacity:0.2;fill:#ffffff" />
    <rect
       width="14"
       height="19"
       rx="1.8667001"
       ry="2"
       x="15.5"
       y="47.5"
       id="rect230"
       style="fill:none;stroke:#825023" />
    <path
       d="M 18.25,64 V 54.75 H 17 L 19.5,50 22,54.75 H 20.75 V 64 h -2.5 z"
       id="path232"
       style="fill:#825023" />
    <path
       d="M 24.25,64 V 54.75 H 23 L 25.5,50 28,54.75 H 26.75 V 64 h -2.5 z"
       id="path234"
       style="fill:#825023" />
  </g>
  <g
     transform="matrix(0.67796351,0,0,0.6966323,32.745887,30.746372)"
     id="g3029"
     style="display:inline">
    <path
       d="M 48,5.421403 C 24.002331,5.421403 4.4214032,25.002331 4.4214032,49 4.4214032,72.997669 24.002331,92.578598 48,92.578598 71.997669,92.578598 91.578598,72.997669 91.578598,49 91.578598,25.002331 71.997669,5.421403 48,5.421403 z"
       id="path3085"
       style="opacity:0.07999998;fill:#000000;fill-opacity:1;stroke:none" />
    <path
       d="M 48,7.1806296 C 24.948727,7.1806296 6.1806298,25.948727 6.1806298,49 6.1806298,72.051273 24.948727,90.819371 48,90.819371 71.051273,90.819371 89.819371,72.051273 89.819371,49 89.819371,25.948727 71.051273,7.1806296 48,7.1806296 z"
       id="path3081"
       style="opacity:0.1;fill:#000000;fill-opacity:1;stroke:none" />
    <path
       d="M 48,8.7890696 C 25.807293,8.7890696 7.7890694,26.807293 7.7890694,49 7.7890694,71.192707 25.807293,89.210931 48,89.210931 70.192707,89.210931 88.210931,71.192707 88.210931,49 88.210931,26.807293 70.192707,8.7890696 48,8.7890696 z"
       id="path3077"
       style="opacity:0.15;fill:#000000;fill-opacity:1;stroke:none" />
    <path
       d="M 48,10.397507 C 26.680431,10.397507 9.3975074,27.680431 9.3975074,49 9.3975074,70.319569 26.680431,87.602493 48,87.602493 69.319569,87.602493 86.602493,70.319569 86.602493,49 86.602493,27.680431 69.319569,10.397507 48,10.397507 z"
       id="path3073"
       style="opacity:0.3;fill:#000000;fill-opacity:1;stroke:none" />
    <path
       d="m 48,8.7890696 c -21.319569,0 -38.6024926,17.2829224 -38.6024926,38.6024914 0,21.319576 17.2829236,38.602494 38.6024926,38.602494 21.319569,0 38.602493,-17.282918 38.602493,-38.602494 C 86.602493,26.071992 69.319569,8.7890696 48,8.7890696 z"
       id="path3069"
       style="fill:url(#linearGradient3968);fill-opacity:1;stroke:none" />
    <path
       d="m 48,8.7890696 c -21.319569,0 -38.6024926,17.2829224 -38.6024926,38.6024914 0,0.266329 -0.00571,0.539175 0,0.80422 C 9.8218743,27.244177 26.946759,10.397507 48,10.397507 c 21.05324,0 38.178126,16.84667 38.602493,37.798274 0.0057,-0.265045 0,-0.537891 0,-0.80422 C 86.602493,26.071992 69.319569,8.7890696 48,8.7890696 z"
       id="path3065"
       style="opacity:0.75;fill:#ffffff;fill-opacity:1;stroke:none" />
    <path
       d="m 9.3975074,46.587346 c -0.00571,0.265043 0,0.537887 0,0.804215 0,21.319576 17.2829236,38.602494 38.6024926,38.602494 21.319569,0 38.602493,-17.282918 38.602493,-38.602494 0,-0.266328 0.0057,-0.539172 0,-0.804215 C 86.178126,67.538947 69.05324,84.385621 48,84.385621 26.946759,84.385621 9.8218743,67.538947 9.3975074,46.587346 z"
       id="path3735"
       style="opacity:0.15;fill:#000000;fill-opacity:1;stroke:none" />
    <path
       d="m -51.75,-53.625 c -14.72019,-3e-6 -26.730807,11.503689 -27.625,26 l -8.625,0 13.875,20.75 13.875,-20.75 -9.875,0 c 0.852258,-9.405081 8.744762,-16.75 18.375,-16.75 3.561952,10e-7 6.932756,1.007173 9.75,2.75 l 4.75,-7.875 c -4.217288,-2.592868 -9.189676,-4.125 -14.5,-4.125 z m 21.875,8 -13.875,20.75 9.875,0 c -0.85226,9.40508 -8.74476,16.75 -18.375,16.75 -3.561952,0 -6.932756,-1.007172 -9.75,-2.75 L -66.75,-3 c 4.217288,2.592868 9.189676,4.125 14.5,4.125 14.720192,4e-6 26.730808,-11.503688 27.625,-26 l 8.625,0 -13.875,-20.75 z"
       transform="matrix(0.93271456,0,0,0.93271456,96.441143,71.416395)"
       clip-path="url(#clipPath3720)"
       id="path3711"
       style="opacity:0.2;fill:none;stroke:#ffffff;stroke-width:4;stroke-miterlimit:4;stroke-dasharray:none;display:inline;filter:url(#filter3724)" />
    <path
       d="m 48.173176,21.399579 c -13.729736,-3e-6 -24.93221,10.729662 -25.766237,24.250579 l -8.044656,0 12.941406,19.353863 12.941414,-19.353863 -9.210556,0 c 0.794915,-8.772258 8.156369,-15.622965 17.138629,-15.622965 3.322285,0 6.466282,0.939402 9.093969,2.564959 L 61.697537,25.24703 C 57.764011,22.82862 53.126191,21.399579 48.173176,21.399579 z m 20.403133,7.461716 -12.941414,19.353824 9.210557,0 c -0.794917,8.77226 -8.156366,15.622965 -17.138634,15.622965 -3.322282,0 -6.466282,-0.939397 -9.093969,-2.564955 l -4.43039,7.345106 c 3.933525,2.418416 8.571348,3.847454 13.524359,3.847454 13.729742,0 24.932222,-10.72963 25.766242,-24.25057 l 8.044692,0 -12.941443,-19.353824 z"
       id="Symbol"
       style="fill:#ff6600;fill-opacity:1;stroke:none;display:inline" />
    <path
       d="m 48.173176,21.399579 c -13.729736,-3e-6 -24.93221,10.729662 -25.766237,24.250579 l -8.044656,0 2.448366,3.730857 5.59629,0 C 23.240966,35.860094 34.44344,25.130432 48.173176,25.130433 c 4.240169,0 8.241468,1.095985 11.77552,2.914737 l 1.748841,-2.79814 C 57.764011,22.82862 53.126191,21.399579 48.173176,21.399579 z m 20.403133,7.461716 -12.941414,19.353824 2.448375,0 10.493039,-15.622967 10.493043,15.622967 2.4484,0 L 68.576309,28.861295 z M 31.850673,45.650158 c -0.394363,1.20663 -0.69755,2.42237 -0.816126,3.730857 l 6.762182,0 2.448374,-3.730857 -8.39443,0 z m 32.178658,6.295826 c -2.249486,6.882712 -8.68006,11.8921 -16.322513,11.8921 -3.322282,0 -6.466282,-0.939397 -9.093969,-2.564955 l -4.43039,7.345106 c 0.566122,0.348062 1.154708,0.626979 1.74884,0.932738 l 2.68155,-4.546952 c 2.627687,1.625533 5.771687,2.564931 9.093969,2.564931 8.982268,0 16.343717,-6.85072 17.138634,-15.622968 l -0.816121,0 z"
       id="path3762"
       style="opacity:0.3;fill:#000000;fill-opacity:1;stroke:none;display:inline" />
    <path
       d="m 59.948696,28.04517 -2.681551,4.546982 c -2.627687,-1.625557 -5.771684,-2.564959 -9.093969,-2.56496 -8.98226,0 -16.343714,6.850708 -17.138629,15.622966 l 0.816126,0 c 2.249474,-6.882712 8.680059,-11.892115 16.322503,-11.892115 3.322285,0 6.466282,0.939408 9.093969,2.564968 l 4.430392,-7.345128 C 61.13142,28.629822 60.542839,28.350932 59.948696,28.04517 z m -1.865426,20.169949 -2.448375,3.730864 8.394436,0 c 0.394353,-1.206631 0.69755,-2.422367 0.816121,-3.730864 l -6.762182,0 z m 15.38979,0 c -0.83402,13.52094 -12.0365,24.25057 -25.766242,24.25057 -4.240164,0 -8.241462,-1.095972 -11.775519,-2.914716 l -1.748841,2.798116 c 3.933526,2.418417 8.571349,3.847483 13.52436,3.847483 13.729742,0 24.932222,-10.729655 25.766242,-24.250589 l 8.044692,0 -2.4484,-3.730864 -5.596292,0 z m -59.110777,1.165896 12.941406,19.353805 12.941414,-19.353805 -2.448373,0 -10.493041,15.623006 -10.49304,-15.623006 -2.448366,0 z"
       id="path3771"
       style="opacity:0.3;fill:#ffffff;fill-opacity:1;stroke:none;display:inline" />
    <path
       d="m 48.173176,21.399579 c -13.729736,-3e-6 -24.93221,10.729662 -25.766237,24.250579 l -8.044656,0 12.941406,19.353863 12.941414,-19.353863 -9.210556,0 c 0.794915,-8.772258 8.156369,-15.622965 17.138629,-15.622965 3.322285,0 6.466282,0.939402 9.093969,2.564959 L 61.697537,25.24703 C 57.764011,22.82862 53.126191,21.399579 48.173176,21.399579 z m 0,1.748845 c 3.999435,0 7.691501,1.150617 11.017691,2.885581 l -2.62326,4.342949 c -2.552385,-1.261967 -5.371253,-2.098607 -8.394431,-2.098608 -9.87033,0 -18.012463,7.570002 -18.887469,17.226078 a 1.7467549,1.7467549 0 0 0 1.74884,1.894569 l 5.946052,0 -9.67691,14.457057 -9.676909,-14.457057 4.780159,0 a 1.7467549,1.7467549 0 0 0 1.748843,-1.632246 C 24.934128,33.148401 35.353405,23.148419 48.173176,23.148424 z m 20.403133,5.712871 -12.941414,19.353824 9.210557,0 c -0.794917,8.77226 -8.156366,15.622965 -17.138634,15.622965 -3.322282,0 -6.466282,-0.939397 -9.093969,-2.564955 l -4.43039,7.345106 c 3.933525,2.418416 8.571348,3.847454 13.524359,3.847454 13.729742,0 24.932222,-10.72963 25.766242,-24.25057 l 8.044692,0 -12.941443,-19.353824 z m 0,3.147916 9.67692,14.457071 -4.780169,0 a 1.7467549,1.7467549 0 0 0 -1.74884,1.632252 C 70.945867,60.716856 60.5266,70.716855 47.706818,70.716855 c -3.999436,0 -7.691498,-1.150585 -11.017687,-2.885577 l 2.62326,-4.342976 c 2.552391,1.261982 5.371252,2.098637 8.394427,2.098637 9.870342,0 18.012468,-7.570013 18.887472,-17.226081 a 1.7467549,1.7467549 0 0 0 -1.748838,-1.894576 l -5.946055,0 9.676912,-14.457071 z"
       id="path3728"
       style="opacity:0.3;fill:#000000;fill-opacity:1;stroke:none;display:inline" />
  </g>
</svg>
